#Comment line ignore any data following # character 
#Hierarchical Translation and Rotation (.htr) file 
[Header]	
#Header keywords are followed by a single value 
FileType HTR		#Single word string
DataType HTRS		#Translation followed by rotation and scale data
FileVersion 1		#integer
NumSegments 25		#integer
NumFrames 4		#integer
DataFrameRate 30		#integer, data frame rate in this file
EulerRotationOrder ZYX
CalibrationUnits mm
RotationUnits Degrees
GlobalAxisofGravity Y
BoneLengthAxis Y
ScaleFactor 1.00
[SegmentNames&Hierarchy]
#CHILD	PARENT
BN_Tick_Root GLOBAL
BN_Torso BN_Tick_Root
BN_L_Leg_Front01 BN_Torso
BN_L_Leg_Rear01 BN_Torso
BN_MetalTop BN_Torso
BN_Neck BN_Torso
BN_R_Leg_Front01 BN_Torso
BN_R_Leg_Rear01 BN_Torso
BN_Sack BN_Torso
BN_L_Leg_Front02 BN_L_Leg_Front01
BN_L_Leg_Front03 BN_L_Leg_Front02
BN_L_Leg_Rear02 BN_L_Leg_Rear01
BN_L_Leg_Rear03 BN_L_Leg_Rear02
BN_Head BN_Neck
BN_Needle BN_Head
BN_R_Leg_Front02 BN_R_Leg_Front01
BN_R_Leg_Front03 BN_R_Leg_Front02
BN_R_Leg_Rear02 BN_R_Leg_Rear01
BN_R_Leg_Rear03 BN_R_Leg_Rear02
BN_SackDef01 BN_Sack
BN_SackDef02 BN_Sack
BN_SackDef03 BN_Sack
BN_SackDef04 BN_Sack
BN_SackDef05 BN_Sack
BN_SackDef06 BN_Sack
[BasePosition]
#SegmentName Tx, Ty, Tz, Rx, Ry, Rz, BoneLength
BN_Tick_Root 0.000000 0.000000 0.000000 -90.000000 0.000000 0.000000 10.000000 
BN_Torso 0.000000 0.000000 0.000000 0.000000 0.000000 0.000000 10.000000 
BN_L_Leg_Front01 0.000000 0.000000 0.000000 0.000000 0.000000 0.000000 10.000000 
BN_L_Leg_Rear01 0.000000 0.000000 0.000000 0.000000 0.000000 0.000000 10.000000 
BN_MetalTop 0.000000 0.000000 0.000000 0.000000 0.000000 0.000000 10.000000 
BN_Neck 0.000000 0.000000 0.000000 0.000000 0.000000 0.000000 10.000000 
BN_R_Leg_Front01 0.000000 0.000000 0.000000 0.000000 0.000000 0.000000 10.000000 
BN_R_Leg_Rear01 0.000000 0.000000 0.000000 0.000000 0.000000 0.000000 10.000000 
BN_Sack 0.000000 0.000000 0.000000 0.000000 0.000000 0.000000 10.000000 
BN_L_Leg_Front02 0.000000 0.000000 0.000000 0.000000 0.000000 0.000000 10.000000 
BN_L_Leg_Front03 0.000000 0.000000 0.000000 0.000000 0.000000 0.000000 10.000000 
BN_L_Leg_Rear02 0.000000 0.000000 0.000000 0.000000 0.000000 0.000000 10.000000 
BN_L_Leg_Rear03 0.000000 0.000000 0.000000 0.000000 0.000000 0.000000 10.000000 
BN_Head 0.000000 0.000000 0.000000 0.000000 0.000000 0.000000 10.000000 
BN_Needle 0.000000 0.000000 0.000000 0.000000 0.000000 0.000000 10.000000 
BN_R_Leg_Front02 0.000000 0.000000 0.000000 0.000000 0.000000 0.000000 10.000000 
BN_R_Leg_Front03 0.000000 0.000000 0.000000 0.000000 0.000000 0.000000 10.000000 
BN_R_Leg_Rear02 0.000000 0.000000 0.000000 0.000000 0.000000 0.000000 10.000000 
BN_R_Leg_Rear03 0.000000 0.000000 0.000000 0.000000 0.000000 0.000000 10.000000 
BN_SackDef01 0.000000 0.000000 0.000000 0.000000 0.000000 0.000000 10.000000 
BN_SackDef02 0.000000 0.000000 0.000000 0.000000 0.000000 0.000000 10.000000 
BN_SackDef03 0.000000 0.000000 0.000000 0.000000 0.000000 0.000000 10.000000 
BN_SackDef04 0.000000 0.000000 0.000000 0.000000 0.000000 0.000000 10.000000 
BN_SackDef05 0.000000 0.000000 0.000000 0.000000 0.000000 0.000000 10.000000 
BN_SackDef06 0.000000 0.000000 0.000000 0.000000 0.000000 0.000000 10.000000 
#Beginning of Data. Separated by tabs
#Fr	Tx	Ty	Tz	Rx	Ry	Rz	SF
[BN_Tick_Root]
157 -2047.966187 816.462769 0.000856 0.000000 0.000000 -55.853268 2204.717041
158 -2020.710449 835.270203 5.281061 0.000000 0.000000 -60.267773 2186.544189
159 -1945.373047 887.344177 19.875750 0.000000 0.000000 -65.336899 2138.282227
160 -1831.572876 966.178284 41.921535 0.000000 0.000000 -70.879364 2071.211670
[BN_Torso]
157 -0.002151 0.026530 132.525711 -14.268433 5.749116 0.623893 132.525711
158 -11.756269 159.822662 267.989044 1.316033 4.493502 0.884986 312.249298
159 -42.009739 259.523132 404.474518 18.539129 3.104641 2.117860 482.407196
160 -78.892097 306.964966 512.820007 32.479782 1.983531 3.191782 602.856384
[BN_L_Leg_Front01]
157 -68.477791 10.734189 -26.804373 -70.237724 26.893934 126.980652 74.316254
158 -68.477791 10.734189 -26.804373 -34.484276 69.980278 -163.781616 74.316254
159 -68.477791 10.734189 -26.804373 -20.781895 53.548759 -93.116127 74.316254
160 -68.477791 10.734189 -26.804373 -34.013363 37.506073 -87.522705 74.316254
[BN_L_Leg_Rear01]
157 -72.133743 -73.994843 -18.268616 53.638912 58.164055 -143.255630 104.939293
158 -72.133743 -73.994843 -18.268616 71.144104 45.757652 -107.365898 104.939293
159 -72.133743 -73.994843 -18.268616 71.917976 27.748455 -96.753181 104.939293
160 -72.133743 -73.994843 -18.268616 68.649658 6.501819 -90.829117 104.939293
[BN_MetalTop]
157 0.000008 13.737477 26.403606 89.997902 -25.633327 -89.996544 29.763546
158 0.000008 13.737477 26.403606 89.997276 -29.246702 -90.000000 29.763546
159 0.000008 13.737477 26.403606 90.000061 -33.179741 -90.000061 29.763546
160 0.000008 13.737477 26.403606 90.002968 -37.112713 -90.000343 29.763546
[BN_Neck]
157 0.000014 95.233284 10.002091 -89.998169 -39.038048 89.996887 95.757088
158 0.000014 95.233284 10.002091 -89.994507 -42.137043 89.997070 95.757088
159 0.000014 95.233284 10.002091 -89.996796 -45.562016 89.995552 95.757088
160 0.000014 95.233284 10.002091 -90.001022 -48.336205 89.999786 95.757088
[BN_R_Leg_Front01]
157 68.477768 10.734107 -26.804314 56.485706 18.391293 61.157234 74.316193
158 68.477768 10.734107 -26.804314 14.466100 72.713661 -3.840911 74.316193
159 68.477768 10.734107 -26.804314 21.565140 61.312157 -88.782631 74.316193
160 68.477768 10.734107 -26.804314 18.409996 40.027065 -77.616905 74.316193
[BN_R_Leg_Rear01]
157 72.133751 -73.994873 -18.268644 -47.935642 36.326080 18.606415 104.939331
158 72.133751 -73.994873 -18.268644 -60.741489 50.276474 -28.029438 104.939331
159 72.133751 -73.994873 -18.268644 -76.365623 37.726685 -54.601990 104.939331
160 72.133751 -73.994873 -18.268644 -88.767929 19.247637 -53.598274 104.939331
[BN_Sack]
157 -0.000000 -78.024918 33.657791 90.001900 2.025657 -89.999702 84.974907
158 -0.000000 -78.024918 33.657791 89.999367 7.686717 -90.002151 84.974907
159 -0.000000 -78.024918 33.657791 90.000916 12.862453 -90.000526 84.974907
160 -0.000000 -78.024918 33.657791 90.003334 15.600183 -89.998108 84.974907
[BN_L_Leg_Front02]
157 142.805023 -0.000015 -0.000104 -11.776372 -24.766735 -92.598526 142.805023
158 142.805023 -0.000015 -0.000104 -9.141447 -25.817276 -99.774155 142.805023
159 142.805023 -0.000015 -0.000104 -27.328621 -0.327418 -23.957026 142.805023
160 142.805023 -0.000015 -0.000104 -18.517670 -16.985823 -67.306778 142.805023
[BN_L_Leg_Front03]
157 124.143021 -0.000045 0.000007 0.354153 -0.434516 102.988129 124.143021
158 124.143021 -0.000045 0.000007 0.353444 -0.418895 110.390038 124.143021
159 124.143021 -0.000045 0.000007 0.352842 0.002135 -0.161306 124.143021
160 124.143021 -0.000045 0.000007 0.351287 -0.422434 70.614662 124.143021
[BN_L_Leg_Rear02]
157 139.939041 0.000075 -0.000022 1.073292 -24.398310 116.059776 139.939041
158 139.939041 0.000075 -0.000022 22.390469 0.004249 19.956812 139.939041
159 139.939041 0.000075 -0.000022 21.983051 0.000111 17.664730 139.939041
160 139.939041 0.000075 -0.000022 20.558332 -0.002079 18.077574 139.939041
[BN_L_Leg_Rear03]
157 142.839615 0.000179 -0.000060 0.000889 -0.002172 -134.539780 142.839615
158 142.839615 0.000179 -0.000060 0.001660 0.001660 0.011550 142.839615
159 142.839615 0.000179 -0.000060 0.001660 0.001660 0.011550 142.839615
160 142.839615 0.000179 -0.000060 0.001660 0.001660 0.000976 142.839615
[BN_Head]
157 57.062447 -0.000030 0.000000 0.001993 0.001239 26.259571 57.062447
158 57.062447 -0.000030 0.000000 0.001959 0.001293 23.160910 57.062447
159 57.062447 -0.000030 0.000000 0.001920 0.001351 19.738020 57.062447
160 57.062447 -0.000030 0.000000 0.001886 0.001397 16.962774 57.062447
[BN_Needle]
157 33.915195 69.677513 -0.000006 0.000003 0.000030 87.896805 77.493202
158 33.915195 69.677513 -0.000005 0.000003 0.000030 87.896805 77.493202
159 33.915195 69.677513 -0.000004 0.000003 0.000030 87.896805 77.493202
160 33.915195 69.677513 -0.000003 0.000003 0.000030 87.896805 77.493202
[BN_R_Leg_Front02]
157 142.804947 -0.000060 0.000060 3.145991 -18.185810 111.744293 142.804947
158 142.804947 -0.000060 0.000060 -1.090955 -18.193607 128.361679 142.804947
159 142.804947 -0.000060 0.000060 17.427238 -8.166386 49.006783 142.804947
160 142.804947 -0.000060 0.000060 10.867624 -13.106651 76.605316 142.804947
[BN_R_Leg_Front03]
157 124.143005 -0.000060 -0.000156 -0.354032 -0.386702 -120.851166 124.143005
158 124.143005 -0.000060 -0.000156 -0.353374 -0.319600 -134.176971 124.143005
159 124.143005 -0.000060 -0.000156 -0.352741 -0.294226 -41.107697 124.143005
160 124.143005 -0.000060 -0.000156 -0.352593 -0.444532 -81.398911 124.143005
[BN_R_Leg_Rear02]
157 139.939011 -0.000149 0.000015 3.752739 -16.927950 -135.896194 139.939011
158 139.939011 -0.000149 0.000015 -9.350961 -13.023045 -76.478722 139.939011
159 139.939011 -0.000149 0.000015 -15.666225 -0.000029 -18.748016 139.939011
160 139.939011 -0.000149 0.000015 -14.493342 -0.002315 -19.247461 139.939011
[BN_R_Leg_Rear03]
157 142.839417 0.000075 0.000119 0.002056 -0.001133 147.740524 142.839417
158 142.839417 0.000075 0.000119 0.002347 -0.000034 91.663185 142.839417
159 142.839417 0.000075 0.000119 0.001660 0.001660 -0.008230 142.839417
160 142.839417 0.000075 0.000119 0.001660 0.001660 0.005619 142.839417
[BN_SackDef01]
157 249.782272 -3.760844 42.949425 -128.408218 -44.374973 -11.740845 253.475800
158 249.782272 -3.760844 42.949425 -128.408218 -44.374973 -11.740845 253.475800
159 249.782272 -3.760844 42.949425 -128.408218 -44.374973 -11.740845 253.475800
160 249.782272 -3.760844 42.949425 -128.408218 -44.374973 -11.740845 253.475800
[BN_SackDef02]
157 138.789795 -62.131748 45.674385 32.077126 -27.375721 -88.781525 158.773758
158 138.789795 -62.131748 45.674385 32.077126 -27.375721 -88.781525 158.773758
159 138.789795 -62.131748 45.674385 32.077126 -27.375721 -88.781525 158.773758
160 138.789795 -62.131748 45.674385 32.077126 -27.375721 -88.781525 158.773758
[BN_SackDef03]
157 249.782272 -3.760785 -42.949661 18.144459 44.375008 -11.740894 253.475845
158 249.782272 -3.760785 -42.949661 18.144459 44.375008 -11.740894 253.475845
159 249.782272 -3.760785 -42.949661 18.144459 44.375008 -11.740894 253.475845
160 249.782272 -3.760785 -42.949661 18.144459 44.375008 -11.740894 253.475845
[BN_SackDef04]
157 138.789780 -62.131645 -45.674473 146.059982 27.375723 -88.781555 158.773743
158 138.789780 -62.131645 -45.674473 146.059982 27.375723 -88.781555 158.773743
159 138.789780 -62.131645 -45.674473 146.059982 27.375723 -88.781555 158.773743
160 138.789780 -62.131645 -45.674473 146.059982 27.375723 -88.781555 158.773743
[BN_SackDef05]
157 118.790161 46.167137 -63.831196 0.155741 51.314110 90.605110 142.537460
158 118.790161 46.167137 -63.831196 0.155741 51.314110 90.605110 142.537460
159 118.790161 46.167137 -63.831196 0.155741 51.314110 90.605110 142.537460
160 118.790161 46.167137 -63.831196 0.155741 51.314110 90.605110 142.537460
[BN_SackDef06]
157 118.790207 46.167194 63.831219 152.058487 -51.314072 90.605019 142.537537
158 118.790207 46.167194 63.831219 152.058487 -51.314072 90.605019 142.537537
159 118.790207 46.167194 63.831219 152.058487 -51.314072 90.605019 142.537537
160 118.790207 46.167194 63.831219 152.058487 -51.314072 90.605019 142.537537
